<svg xmlns="http://www.w3.org/2000/svg" viewBox="0 0 96 96" fill="none">
  <defs>
    <radialGradient id="sun" cx="0" cy="0" r="1" gradientTransform="matrix(0 45 -45 0 48 38)" gradientUnits="userSpaceOnUse">
      <stop stop-color="#FFF9D7"/><stop offset=".48" stop-color="#FFD955"/><stop offset="1" stop-color="#F4A62A"/>
    </radialGradient>
    <linearGradient id="ray" x1="48" y1="2" x2="48" y2="24" gradientUnits="userSpaceOnUse">
      <stop stop-color="#FFEFA0"/><stop offset="1" stop-color="#F6A92D"/>
    </linearGradient>
    <filter id="glow" x="-40%" y="-40%" width="180%" height="180%"><feGaussianBlur stdDeviation="3"/></filter>
  </defs>
  <circle cx="48" cy="47" r="31" fill="#FFC943" fill-opacity=".24" filter="url(#glow)"/>
  <g stroke="url(#ray)" stroke-width="5" stroke-linecap="round">
    <path d="M48 5v11M48 79v11M5 48h11M80 48h11M17.6 17.6l7.8 7.8m45.2 45.2 7.8 7.8m0-60.8-7.8 7.8m-45.2 45.2-7.8 7.8"/>
  </g>
  <circle cx="48" cy="48" r="29" fill="url(#sun)" stroke="#FFF3BD" stroke-width="2"/>
  <path d="M36.5 45.5c1.4-2.4 3.1-3.6 5.1-3.6 2 0 3.7 1.2 5.1 3.6m4.7 0c1.4-2.4 3.1-3.6 5.1-3.6 2 0 3.7 1.2 5.1 3.6" stroke="#754B55" stroke-width="2.8" stroke-linecap="round"/>
  <ellipse cx="31.5" cy="53" rx="4.2" ry="2.2" fill="#F28E85" fill-opacity=".62"/><ellipse cx="64.5" cy="53" rx="4.2" ry="2.2" fill="#F28E85" fill-opacity=".62"/>
  <path d="M41 53.5c1.4 2.5 3.8 3.8 7 3.8s5.6-1.3 7-3.8" stroke="#8B4B43" stroke-width="2.8" stroke-linecap="round"/>
  <path d="M34 32c4-4 8-6 13-6" stroke="#FFFBE4" stroke-width="3" stroke-linecap="round" opacity=".8"/>
</svg>
